<?xml version="1.0" encoding="UTF-8"?>
<svg xmlns="http://www.w3.org/2000/svg" xmlns:xlink="http://www.w3.org/1999/xlink" width="32pt" height="32pt" viewBox="0 0 32 32" version="1.1">
<g id="surface1">
<path style=" stroke:none;fill-rule:nonzero;fill:rgb(0%,0%,0%);fill-opacity:1;" d="M 18.734375 3.667969 L 25.316406 7.46875 C 26.402344 6.324219 28.210938 6.277344 29.355469 7.367188 C 29.554688 7.550781 29.722656 7.765625 29.859375 8 C 30.644531 9.371094 30.167969 11.121094 28.796875 11.90625 C 28.566406 12.039062 28.316406 12.136719 28.054688 12.203125 L 28.054688 19.800781 C 29.582031 20.164062 30.527344 21.699219 30.160156 23.226562 C 30.097656 23.5 29.992188 23.761719 29.851562 24 C 29.0625 25.367188 27.316406 25.832031 25.949219 25.042969 C 25.6875 24.894531 25.449219 24.699219 25.246094 24.472656 L 18.707031 28.246094 C 19.203125 29.746094 18.390625 31.363281 16.894531 31.855469 C 16.605469 31.949219 16.304688 32 16 32 C 14.425781 32 13.148438 30.726562 13.148438 29.152344 C 13.148438 28.878906 13.183594 28.605469 13.265625 28.339844 L 6.683594 24.542969 C 5.59375 25.683594 3.789062 25.726562 2.648438 24.636719 C 1.507812 23.550781 1.464844 21.742188 2.554688 20.601562 C 2.933594 20.207031 3.414062 19.929688 3.945312 19.796875 L 3.949219 12.199219 C 2.414062 11.832031 1.46875 10.289062 1.839844 8.753906 C 1.902344 8.492188 2.003906 8.234375 2.136719 8 C 2.929688 6.632812 4.675781 6.167969 6.042969 6.957031 C 6.277344 7.09375 6.492188 7.261719 6.679688 7.460938 L 13.265625 3.660156 C 12.816406 2.148438 13.679688 0.5625 15.1875 0.117188 C 15.449219 0.0390625 15.726562 0 16 0 C 17.574219 0 18.851562 1.273438 18.851562 2.84375 C 18.855469 3.125 18.8125 3.402344 18.734375 3.667969 Z M 18.046875 4.835938 C 18.023438 4.867188 18 4.890625 17.96875 4.914062 L 26.585938 19.835938 C 26.621094 19.824219 26.660156 19.8125 26.695312 19.804688 L 26.695312 12.195312 C 25.167969 11.816406 24.238281 10.273438 24.617188 8.742188 C 24.625 8.710938 24.632812 8.679688 24.644531 8.648438 Z M 14.027344 4.914062 L 13.949219 4.835938 L 7.351562 8.636719 C 7.789062 10.152344 6.917969 11.730469 5.40625 12.164062 C 5.371094 12.175781 5.335938 12.183594 5.304688 12.191406 L 5.304688 19.804688 L 5.414062 19.835938 L 14.03125 4.914062 Z M 16.796875 5.59375 C 16.277344 5.742188 15.726562 5.742188 15.207031 5.59375 L 6.59375 20.511719 C 6.984375 20.886719 7.261719 21.371094 7.394531 21.898438 L 24.609375 21.898438 C 24.738281 21.367188 25.015625 20.882812 25.410156 20.507812 Z M 18.109375 27.226562 L 24.660156 23.445312 C 24.640625 23.382812 24.625 23.320312 24.609375 23.253906 L 7.390625 23.253906 L 7.363281 23.367188 L 13.945312 27.167969 C 14.464844 26.628906 15.191406 26.296875 16 26.296875 C 16.835938 26.296875 17.585938 26.65625 18.109375 27.226562 Z M 18.109375 27.226562 "/>
</g>
</svg>
